<?xml version="1.0" ?><svg fill="white" viewBox="0 0 64 64" xmlns="http://www.w3.org/2000/svg"><title/><g id="Satellite"><path d="M62.707,46.8105l-5.0576-5.0576-5.0576-5.0576-5.0576-5.0576a1.0294,1.0294,0,0,0-1.4141,0l-5.4991,5.5L39.2764,35.793l5.5-5.5a1,1,0,0,0,0-1.4141l-.87-.87,2.4362-4.8724a1,1,0,0,0-.1875-1.1543l-1.3618-1.3618L47.707,17.707a1,1,0,0,0-1.414-1.414l-2.9136,2.9135-1.3618-1.3618a1,1,0,0,0-1.1543-.1875l-4.8724,2.4362-.87-.87a1,1,0,0,0-1.4141,0l-5.5,5.5L26.8624,23.379l5.5-5.4991a1,1,0,0,0,0-1.4141l-5.0576-5.0576L22.2471,6.3506,17.19,1.293a1,1,0,0,0-1.4141,0L9.5684,7.5,3.3623,13.707a1,1,0,0,0,0,1.4141l5.0566,5.0576,5.0577,5.0567,5.0576,5.0576a1,1,0,0,0,1.414,0l5.5-5.5,1.3448,1.3447-5.5,5.5a1,1,0,0,0,0,1.4141l1.3623,1.3623-1.8684,1.8684A16.5633,16.5633,0,0,0,1.293,39.2236a1,1,0,0,0,0,1.4141L6.47,45.8151,5.4451,55.0262a2.85,2.85,0,0,0-1.3933.7492A2.9507,2.9507,0,1,0,8.999,58.5521L18.1849,57.53l5.1774,5.1773a1,1,0,0,0,1.4141,0,16.5955,16.5955,0,0,0,2.9367-19.4895l1.8728-1.8728,1.3623,1.3623a1,1,0,0,0,1.4141,0l5.5-5.5,1.3447,1.3448-5.5,5.5a1,1,0,0,0,0,1.414l5.0576,5.0576,5.0567,5.0577,5.0576,5.0566a1,1,0,0,0,1.4141,0L56.5,54.4316l6.207-6.207A1,1,0,0,0,62.707,46.8105ZM25.4482,21.9648l-1.8217-1.8212-1.8218-1.8214,4.793-4.7929,3.6435,3.6436Zm-5.0576-5.0566-3.6435-3.6436L21.54,8.4717l3.6436,3.6435ZM16.4824,3.4141,20.126,7.0576l-4.793,4.793L11.69,8.207Zm-6.207,6.207,3.6435,3.6435L9.126,18.0576,5.4834,14.4141Zm5.0576,5.0576,3.6435,3.6435L16.58,20.7183l-2.3965,2.396L10.54,19.4717Zm3.9082,13.4932-3.6435-3.6435,2.3964-2.3961,2.3965-2.396,1.8218,1.8213,1.8217,1.8214Zm21.8721-8.4033,3.1181,3.1181-1.8161,3.6312-4.9332-4.9332ZM11.6206,50.9653,7.4451,55.1408l.8365-7.5145Zm-4.81,7.5689a.9508.9508,0,1,1,0-1.3447A.9513.9513,0,0,1,6.8105,58.5342Zm2.0487-1.9793,4.1755-4.1755,3.339,3.339Zm15.1857,4.0066L3.4375,39.9541A14.6054,14.6054,0,0,1,24.0449,60.5615ZM26.65,41.4521c-.0389-.0554-.0848-.1067-.1245-.1618q-.3-.4164-.6276-.8162c-.0789-.0963-.157-.1926-.2382-.2873-.2825-.33-.574-.6531-.8837-.9632s-.6339-.6015-.9637-.8842c-.0944-.0808-.19-.1587-.2861-.2372q-.4011-.3287-.8189-.63c-.0544-.0391-.105-.0844-.16-.1229l1.5214-1.5215,4.1026,4.1026Zm5.0049-.8662L30.293,39.2236,24.7764,33.707l-1.3623-1.3623,11-11,.6682.6683.0036.0046,6.8965,6.8965.003.0019.67.67Zm19.08,6.667-3.6436-3.6435,4.793-4.793L55.5283,42.46ZM46.8271,33.7588l3.6436,3.6435-4.7929,4.793-1.8214-1.8218-1.8212-1.8217ZM40.621,39.9659l1.8214,1.8217,1.8213,1.8218-2.396,2.3965-2.3961,2.3964-3.6435-3.6435Zm2.6607,7.454,2.3961-2.3964,3.6435,3.6435-4.793,4.793-3.6426-3.6436Zm6.3042,11.0967L45.9424,54.874l4.793-4.7929,3.6435,3.6435Zm6.2071-6.2061L52.1494,48.667l4.793-4.793,3.6435,3.6436Z"/></g></svg>